<?xml version="1.0" standalone="no"?>
<!DOCTYPE svg PUBLIC "-//W3C//DTD SVG 20010904//EN"
 "http://www.w3.org/TR/2001/REC-SVG-20010904/DTD/svg10.dtd">
<svg version="1.0" xmlns="http://www.w3.org/2000/svg"
 width="249.000000pt" height="249.000000pt" viewBox="0 0 249.000000 249.000000"
 preserveAspectRatio="xMidYMid meet">
<metadata>
Created by potrace 1.11, written by Peter Selinger 2001-2013
</metadata>
<g transform="translate(0.000000,249.000000) scale(0.100000,-0.100000)"
fill="#000000" stroke="none">
<path d="M2425 1928 c-8 -5 -27 -11 -42 -13 -16 -2 -43 -8 -60 -14 -18 -5 -33
-7 -33 -4 0 3 -6 0 -14 -6 -7 -6 -21 -9 -30 -5 -10 4 -16 1 -16 -7 0 -7 -3
-10 -6 -6 -3 3 -23 -1 -45 -8 -22 -8 -41 -14 -44 -15 -3 0 -6 0 -7 -1 -2 0
-11 -2 -20 -5 -37 -9 -45 -11 -103 -29 -33 -10 -63 -19 -67 -21 -5 -1 -10 -3
-13 -4 -3 -1 -9 -4 -15 -5 -5 -1 -12 -4 -15 -5 -3 -1 -9 -3 -14 -4 -5 0 -12
-4 -16 -8 -4 -4 -13 -4 -21 -1 -8 3 -14 0 -14 -7 0 -7 -6 -10 -14 -7 -7 3 -19
0 -25 -6 -6 -6 -11 -7 -11 -2 0 6 -4 5 -8 -2 -4 -6 -19 -14 -34 -17 -14 -2
-36 -9 -47 -16 -12 -6 -21 -7 -21 -3 0 4 -4 2 -9 -5 -5 -8 -20 -15 -34 -15
-14 -1 -23 -6 -19 -11 3 -5 -2 -7 -11 -3 -9 3 -19 2 -22 -4 -4 -5 -11 -7 -16
-4 -5 4 -9 1 -9 -4 0 -6 -9 -11 -19 -11 -11 0 -23 -5 -26 -10 -4 -6 -11 -8
-16 -5 -5 4 -9 1 -9 -6 0 -7 -3 -9 -7 -6 -3 4 -17 0 -30 -8 -13 -9 -29 -13
-35 -9 -7 5 -8 3 -3 -6 6 -10 4 -12 -8 -7 -8 3 -21 -1 -27 -8 -7 -8 -16 -12
-21 -9 -5 3 -9 0 -9 -6 0 -6 -4 -8 -10 -5 -5 3 -10 1 -10 -4 0 -6 -3 -10 -7
-9 -5 1 -21 -5 -38 -12 -16 -7 -33 -13 -37 -12 -5 1 -8 -3 -8 -8 0 -6 -5 -10
-10 -10 -6 0 -26 -7 -46 -15 -19 -8 -36 -13 -38 -12 -2 1 -13 -6 -23 -16 -11
-9 -23 -14 -26 -10 -4 3 -7 1 -7 -6 0 -7 -4 -10 -9 -7 -5 3 -11 0 -14 -8 -3
-8 -19 -17 -36 -21 -17 -4 -31 -11 -31 -16 0 -5 -7 -9 -16 -9 -8 0 -22 -7 -31
-15 -8 -8 -19 -13 -24 -10 -5 4 -9 2 -9 -3 0 -8 -45 -35 -62 -36 -4 -1 -16 -9
-27 -18 -11 -9 -22 -14 -25 -11 -3 4 -6 1 -6 -5 0 -7 -6 -12 -13 -12 -7 0 -23
-9 -35 -21 -12 -11 -27 -17 -34 -13 -6 4 -8 3 -5 -2 3 -5 -19 -23 -49 -39 -30
-16 -54 -33 -54 -37 0 -4 -7 -8 -15 -8 -8 0 -15 -4 -15 -10 0 -5 -5 -10 -10
-10 -6 0 -20 -9 -32 -20 -12 -10 -26 -17 -31 -13 -6 3 -7 1 -3 -5 3 -6 -3 -13
-14 -17 -11 -3 -20 -11 -20 -16 0 -6 -5 -7 -10 -4 -6 3 -13 -1 -16 -9 -3 -9
-11 -16 -18 -16 -6 0 -19 -8 -28 -17 -33 -34 -55 -53 -61 -53 -7 0 -47 -32
-84 -67 -13 -13 -27 -23 -31 -23 -4 0 -18 -13 -32 -29 -13 -17 -27 -28 -32
-25 -4 3 -8 -2 -8 -11 0 -9 -4 -14 -9 -11 -5 3 -12 -1 -15 -10 -3 -8 -11 -12
-17 -8 -7 4 -9 3 -5 -4 3 -6 -3 -17 -15 -25 -15 -11 -19 -21 -14 -36 3 -12 9
-21 13 -22 4 -1 86 -2 182 -3 l175 -2 29 31 c16 16 25 23 20 15 -4 -8 15 9 43
38 29 28 57 52 63 52 6 0 8 4 5 10 -3 5 5 15 19 21 14 7 23 16 20 20 -3 5 2 9
10 9 8 0 20 9 26 21 7 11 14 18 17 15 3 -3 19 9 34 25 16 17 29 28 29 25 0 -6
9 2 69 57 17 16 31 25 31 21 0 -4 9 3 20 16 11 13 20 19 20 14 0 -5 7 0 15 10
8 11 15 17 15 13 0 -4 9 1 20 11 11 9 29 25 40 35 11 9 20 15 20 12 0 -3 6 -1
13 5 55 46 72 58 79 54 4 -3 8 -1 8 4 0 6 19 19 42 31 24 12 39 21 34 21 -6 0
-1 6 9 14 11 8 23 12 27 10 5 -3 8 -1 8 3 0 5 9 14 21 21 17 11 20 11 14 0 -3
-7 0 -5 8 5 8 9 19 17 26 17 6 0 11 5 11 12 0 6 3 9 6 5 3 -3 30 10 59 29 30
19 56 34 59 34 3 0 28 13 56 30 27 16 50 27 50 24 0 -3 7 2 16 10 8 9 20 14
25 10 5 -3 12 2 15 10 3 9 10 13 15 10 5 -3 9 0 9 6 0 7 7 9 16 6 10 -4 13 -2
8 6 -5 8 -2 9 9 5 9 -3 19 -2 22 3 9 14 66 40 59 27 -3 -7 1 -4 9 5 8 10 17
15 20 11 4 -3 7 -1 7 6 0 7 5 9 10 6 6 -3 10 -1 10 6 0 7 3 10 6 6 3 -3 27 5
52 18 26 13 50 21 54 19 4 -3 8 0 8 5 0 6 3 10 8 9 4 -1 21 5 38 15 17 9 34
13 38 10 3 -4 6 -1 6 6 0 7 4 10 9 6 5 -3 12 -1 16 5 4 6 10 8 15 5 5 -3 11
-1 15 5 4 6 11 8 16 5 5 -4 9 -1 9 4 0 6 8 11 18 11 10 0 22 3 26 8 4 4 11 7
14 7 4 1 17 6 30 13 12 7 22 9 22 5 0 -4 5 -2 11 4 6 6 18 9 25 6 8 -3 14 0
14 7 0 7 7 10 15 6 8 -3 15 -1 15 5 0 6 4 8 9 4 5 -3 13 0 16 6 4 5 13 8 21 5
8 -3 14 -1 14 5 0 6 5 7 10 4 6 -3 10 -1 10 4 0 6 3 10 8 10 4 -1 9 0 12 1 13
4 47 12 63 13 9 1 17 5 17 10 0 5 6 7 12 5 18 -6 38 17 38 44 0 19 -5 24 -25
24 -13 0 -31 -4 -40 -8z"/>
<path d="M94 1583 c-8 -8 -14 -20 -14 -26 1 -7 51 -48 112 -92 61 -44 160
-117 221 -162 l110 -82 106 56 c160 86 164 88 160 98 -2 6 -66 57 -143 115
l-139 105 -199 1 c-160 1 -203 -2 -214 -13z"/>
<path d="M982 1068 c-63 -50 -110 -94 -105 -98 4 -4 93 -69 197 -144 l188
-137 205 -1 c205 -1 222 1 223 34 0 4 -44 40 -97 79 -150 111 -492 359 -495
359 -2 -1 -54 -42 -116 -92z"/>
</g>
</svg>
